<svg width="76" height="76" viewBox="0 0 76 76" fill="none" xmlns="http://www.w3.org/2000/svg">
<path d="M36.0003 43.0501L32.4772 39.5238L32.4767 39.5234C32.1515 39.1981 31.7654 38.9401 31.3404 38.7641C30.9155 38.5881 30.46 38.4975 30.0001 38.4975C29.0712 38.4975 28.1803 38.8665 27.5234 39.5234C27.1982 39.8486 26.9402 40.2347 26.7642 40.6597C26.5882 41.0846 26.4976 41.5401 26.4976 42C26.4976 42.46 26.5882 42.9154 26.7642 43.3404C26.9402 43.7653 27.1982 44.1515 27.5234 44.4767L33.5221 50.4754C33.5222 50.4755 33.5224 50.4756 33.5225 50.4758C33.8475 50.8015 34.2336 51.06 34.6586 51.2363C35.0839 51.4128 35.5397 51.5036 36.0001 51.5036C36.4605 51.5036 36.9163 51.4128 37.3415 51.2363C37.7664 51.0601 38.1523 50.8018 38.4772 50.4762C38.4775 50.4759 38.4778 50.4756 38.4781 50.4754L50.4754 38.478C50.4755 38.478 50.4755 38.4779 50.4756 38.4778C50.8015 38.1528 51.06 37.7666 51.2364 37.3415C51.4128 36.9163 51.5037 36.4604 51.5037 36C51.5037 35.5397 51.4128 35.0838 51.2364 34.6586C51.0602 34.234 50.8021 33.8482 50.4767 33.5234M50.4767 33.5234C50.4772 33.5238 50.4776 33.5243 50.4781 33.5247L49.4161 34.584L50.4754 33.522C50.4759 33.5225 50.4763 33.5229 50.4767 33.5234Z" fill="#5793DB" stroke="#181515" stroke-width="3"/>
<path d="M18.5 4.83772C18.1414 5.00779 17.8111 5.23916 17.5251 5.52513C16.8688 6.1815 16.5 7.07174 16.5 8V8.5H14C11.4804 8.5 9.06408 9.50089 7.28249 11.2825C5.50089 13.0641 4.5 15.4804 4.5 18V62C4.5 64.5196 5.50089 66.9359 7.28249 68.7175C9.06408 70.4991 11.4804 71.5 14 71.5H62C64.5196 71.5 66.9359 70.4991 68.7175 68.7175C70.4991 66.9359 71.5 64.5196 71.5 62V18C71.5 15.4804 70.4991 13.0641 68.7175 11.2825C66.9359 9.50089 64.5196 8.5 62 8.5H59.5V8C59.5 7.07174 59.1313 6.18151 58.4749 5.52513C57.8185 4.86875 56.9283 4.5 56 4.5C55.0717 4.5 54.1815 4.86875 53.5251 5.52513C52.8687 6.18151 52.5 7.07174 52.5 8V8.5H23.5V8C23.5 7.07174 23.1313 6.1815 22.4749 5.52513C21.8185 4.86875 20.9283 4.5 20 4.5H18.5V4.83772ZM11.5 62V23.5H64.5V62C64.5 62.663 64.2366 63.2989 63.7678 63.7678C63.2989 64.2366 62.663 64.5 62 64.5H14C13.337 64.5 12.7011 64.2366 12.2322 63.7678C11.7634 63.2989 11.5 62.663 11.5 62Z" fill="#5793DB" stroke="#181515" stroke-width="3"/>
</svg>
