<svg width="64" height="64" viewBox="0 0 64 64" fill="none" xmlns="http://www.w3.org/2000/svg">
<path d="M25.712 4.604C26.832 2.364 28.852 0 32 0C35.148 0 37.168 2.368 38.288 4.604C39.444 6.92 40 9.724 40 12V26.764L60.68 37.104C61.6775 37.602 62.5165 38.368 63.1029 39.3162C63.6893 40.2643 64 41.3571 64 42.472V48C63.9999 48.2903 63.9365 48.5771 63.8144 48.8405C63.6922 49.1039 63.5142 49.3375 63.2927 49.5252C63.0712 49.7128 62.8115 49.85 62.5316 49.9271C62.2517 50.0043 61.9584 50.0196 61.672 49.972L39.644 46.3L38.144 55.312L43.416 60.584C43.6964 60.8637 43.8875 61.2204 43.965 61.6088C44.0424 61.9973 44.0028 62.4 43.8511 62.7659C43.6995 63.1317 43.4426 63.4444 43.113 63.6641C42.7835 63.8838 42.3961 64.0007 42 64H22C21.6039 64.0007 21.2165 63.8838 20.887 63.6641C20.5574 63.4444 20.3005 63.1317 20.1489 62.7659C19.9972 62.4 19.9576 61.9973 20.035 61.6088C20.1125 61.2204 20.3036 60.8637 20.584 60.584L25.86 55.312L24.356 46.3L2.328 49.972C2.04161 50.0196 1.74829 50.0043 1.46842 49.9271C1.18854 49.85 0.928817 49.7128 0.707293 49.5252C0.485768 49.3375 0.307752 49.1039 0.185612 48.8405C0.0634708 48.5771 0.00013364 48.2903 0 48L0 42.472C3.76601e-05 41.3571 0.31069 40.2643 0.897113 39.3162C1.48354 38.368 2.32253 37.602 3.32 37.104L24 26.764V12C24 9.728 24.56 6.916 25.712 4.604ZM29.288 6.396C28.444 8.08 28 10.276 28 12V28C28 28.3711 27.8967 28.7349 27.7017 29.0507C27.5068 29.3664 27.2278 29.6217 26.896 29.788L5.104 40.684C4.77221 40.8503 4.49323 41.1056 4.29825 41.4213C4.10328 41.7371 4.00001 42.1009 4 42.472V45.64L25.672 42.028C26.1944 41.9412 26.7299 42.0651 27.161 42.3725C27.5922 42.68 27.8838 43.1458 27.972 43.668L29.972 55.668C30.025 55.9829 30.0018 56.3059 29.9044 56.61C29.8069 56.9141 29.6381 57.1905 29.412 57.416L26.832 60H37.176L34.588 57.416C34.3625 57.1909 34.194 56.9152 34.0966 56.6119C33.9992 56.3085 33.9757 55.9863 34.028 55.672L36.028 43.672C36.0712 43.4127 36.165 43.1644 36.3042 42.9414C36.4434 42.7184 36.6252 42.525 36.8392 42.3724C37.0532 42.2197 37.2952 42.1107 37.5513 42.0516C37.8075 41.9925 38.0728 41.9845 38.332 42.028L60 45.64V42.472C60 42.1009 59.8967 41.7371 59.7017 41.4213C59.5068 41.1056 59.2278 40.8503 58.896 40.684L37.104 29.788C36.7722 29.6217 36.4932 29.3664 36.2983 29.0507C36.1033 28.7349 36 28.3711 36 28V12C36 10.272 35.56 8.084 34.712 6.396C33.832 4.636 32.852 4 32 4C31.148 4 30.168 4.632 29.288 6.396Z" fill="#181515"/>
</svg>
