<svg width="218" height="67" viewBox="0 0 218 67" fill="none" xmlns="http://www.w3.org/2000/svg">
<g id="Group">
<path id="Vector" fill-rule="evenodd" clip-rule="evenodd" d="M181.176 66.7826C169.759 66.7826 160.471 56.7961 160.471 44.5215C160.471 32.2468 169.759 22.2609 181.176 22.2609C192.593 22.2609 201.882 32.2468 201.882 44.5215C201.882 56.7961 192.593 66.7826 181.176 66.7826ZM181.176 31.3913C174.442 31.3913 168.963 37.2814 168.963 44.5215C168.963 51.7615 174.442 57.6521 181.176 57.6521C187.911 57.6521 193.39 51.7615 193.39 44.5215C193.39 37.2814 187.911 31.3913 181.176 31.3913Z" fill="#5793DB"/>
<path id="Vector_2" fill-rule="evenodd" clip-rule="evenodd" d="M211.588 66.7826C208.377 66.7826 205.765 63.9741 205.765 60.5214C205.765 57.0694 208.377 54.2609 211.588 54.2609C214.799 54.2609 217.412 57.0694 217.412 60.5214C217.412 63.9741 214.799 66.7826 211.588 66.7826Z" fill="#F7931D"/>
<g id="Group_2">
<path id="Vector_3" fill-rule="evenodd" clip-rule="evenodd" d="M27.1765 66.7826C25.0324 66.7826 23.2942 65.0047 23.2942 62.8115V35.9711C23.2942 33.7779 25.0324 32 27.1765 32C29.3207 32 31.0589 33.7779 31.0589 35.9711V62.8115C31.0589 65.0047 29.3207 66.7826 27.1765 66.7826Z" fill="#5793DB"/>
<path id="Vector_4" fill-rule="evenodd" clip-rule="evenodd" d="M54.2605 4.24399C55.9017 5.98867 56.1166 8.60543 54.7411 10.088L37.9073 28.2309C36.5318 29.7135 34.0864 29.5007 32.4452 27.756C30.8045 26.0108 30.5891 23.3945 31.9646 21.9119L48.7986 3.76909C50.174 2.28649 52.6193 2.4993 54.2605 4.24399Z" fill="#5793DB"/>
<path id="Vector_5" fill-rule="evenodd" clip-rule="evenodd" d="M1.38655 4.24399C-0.254609 5.98867 -0.46954 8.60543 0.905925 10.088L17.7398 28.2309C19.1153 29.7135 21.5607 29.5007 23.2018 27.756C24.8425 26.0108 25.0579 23.3945 23.6825 21.9119L6.84856 3.76909C5.47309 2.28649 3.02772 2.4993 1.38655 4.24399Z" fill="#5793DB"/>
<path id="Vector_6" fill-rule="evenodd" clip-rule="evenodd" d="M146.235 0C144.091 0 142.353 1.70158 142.353 3.80011V62.982C142.353 65.081 144.091 66.7826 146.235 66.7826C148.379 66.7826 150.118 65.081 150.118 62.982V3.80011C150.118 1.70158 148.379 0 146.235 0" fill="#5793DB"/>
<path id="Vector_7" fill-rule="evenodd" clip-rule="evenodd" d="M127.754 66.7826C125.409 66.7826 123.507 65.1017 123.507 63.0287V42.0368C123.507 36.0827 118.899 31.2395 113.235 31.2395C107.571 31.2395 102.963 36.0827 102.963 42.0368L103.012 63.0196C103.018 65.0926 101.121 66.7775 98.7761 66.7826H98.7655C96.4251 66.7826 94.5249 65.1078 94.5192 63.0379L94.4706 42.0475C94.4706 31.1322 102.889 22.2609 113.235 22.2609C123.582 22.2609 132 31.1322 132 42.0368V63.0287C132 65.1017 130.099 66.7826 127.754 66.7826Z" fill="#5793DB"/>
<path id="Vector_8" fill-rule="evenodd" clip-rule="evenodd" d="M79.8473 48.3489C82.2116 48.3437 84.1234 46.6302 84.1176 44.522C84.1176 32.2468 75.1192 22.2609 64.0586 22.2609C52.9984 22.2609 44 32.2468 44 44.522C44 56.7966 53.3515 66.7826 64.8462 66.7826C71.6447 66.7826 78.032 63.2283 81.9347 57.2746C83.0628 55.5491 82.4148 52.9832 80.4865 51.536C80.4836 51.5339 80.4807 51.5319 80.4778 51.5298C78.5417 50.0831 76.0532 50.3107 74.9203 52.0387C72.6186 55.5538 68.8527 57.6521 64.8462 57.6521C59.3173 57.6521 54.6304 53.728 53.094 48.3489H79.8473ZM64.0586 31.3913C69.373 31.3913 73.8563 35.5306 75.1672 41.1342H52.9499C54.2613 35.5306 58.7446 31.3913 64.0586 31.3913Z" fill="#5793DB"/>
</g>
<path id="Vector_9" fill-rule="evenodd" clip-rule="evenodd" d="M82.187 57.7238C82.1816 57.7311 82.1776 57.7383 82.1722 57.7455C82.1695 57.7499 82.1681 57.7528 82.1667 57.7557L82.187 57.7238Z" fill="#58A6DC"/>
</g>
</svg>
