<svg width="64" height="64" viewBox="0 0 64 64" fill="none" xmlns="http://www.w3.org/2000/svg">
<g clip-path="url(#clip0_41_514)">
<path fill-rule="evenodd" clip-rule="evenodd" d="M33.0005 10.9924L30.1325 8.0444C23.4005 1.1244 11.0565 3.5124 6.60049 12.2124C4.67249 15.9804 4.12049 21.2924 7.03249 28.0004H2.72049C-5.79151 5.2124 19.3805 -7.3196 32.2965 4.5724C32.5365 4.7924 32.7725 5.0204 33.0005 5.2564C33.2262 5.02061 33.461 4.79377 33.7045 4.5764C46.6245 -7.3196 71.7925 5.2124 63.2805 28.0004H58.9685C61.8805 21.2924 61.3285 15.9804 59.4005 12.2124C54.9445 3.5124 42.6005 1.1204 35.8685 8.0404L33.0005 10.9924ZM9.84849 40.0004H15.1085C19.3725 44.7324 25.2005 49.8324 33.0005 55.1804C40.7965 49.8324 46.6285 44.7324 50.8925 40.0004H56.1525C51.0925 46.2644 43.5925 53.0004 33.0005 60.0004C22.4085 53.0004 14.9085 46.2644 9.84849 40.0004ZM42.8565 13.2564C42.7013 12.8691 42.4289 12.5401 42.0775 12.3153C41.726 12.0906 41.313 11.9814 40.8964 12.003C40.4798 12.0246 40.0803 12.1759 39.754 12.4358C39.4277 12.6957 39.1908 13.0512 39.0765 13.4524L32.6845 35.8244L26.8565 21.2564C26.7208 20.9185 26.4953 20.624 26.2045 20.4048C25.9137 20.1855 25.5686 20.0499 25.2063 20.0124C24.8441 19.9749 24.4785 20.0371 24.1489 20.1922C23.8194 20.3473 23.5385 20.5894 23.3365 20.8924L15.9285 32.0004H3.00049C2.47006 32.0004 1.96135 32.2111 1.58628 32.5862C1.2112 32.9613 1.00049 33.47 1.00049 34.0004C1.00049 34.5308 1.2112 35.0395 1.58628 35.4146C1.96135 35.7897 2.47006 36.0004 3.00049 36.0004H17.0005C17.3299 36.0002 17.6541 35.9187 17.9444 35.7631C18.2347 35.6075 18.482 35.3826 18.6645 35.1084L24.5565 26.2724L31.1445 42.7444C31.2997 43.1317 31.572 43.4607 31.9235 43.6854C32.275 43.9102 32.6879 44.0194 33.1046 43.9978C33.5212 43.9762 33.9206 43.8249 34.247 43.565C34.5733 43.3051 34.8102 42.9496 34.9245 42.5484L41.3165 20.1764L47.1445 34.7444C47.2931 35.1151 47.5493 35.4329 47.8801 35.6568C48.2108 35.8806 48.6011 36.0003 49.0005 36.0004H63.0005C63.5309 36.0004 64.0396 35.7897 64.4147 35.4146C64.7898 35.0395 65.0005 34.5308 65.0005 34.0004C65.0005 33.47 64.7898 32.9613 64.4147 32.5862C64.0396 32.2111 63.5309 32.0004 63.0005 32.0004H50.3525L42.8565 13.2564Z" fill="#181515"/>
</g>
<defs>
<clipPath id="clip0_41_514">
<rect width="64" height="64" fill="white"/>
</clipPath>
</defs>
</svg>
