<svg width="64" height="48" viewBox="0 0 64 48" fill="none" xmlns="http://www.w3.org/2000/svg">
<path d="M60 48C60 48 64 48 64 44C64 40 60 28 44 28C28 28 24 40 24 44C24 48 28 48 28 48H60ZM28.088 44C28.0585 43.9959 28.0291 43.9906 28 43.984C28.004 42.928 28.668 39.864 31.04 37.104C33.248 34.516 37.128 32 44 32C50.868 32 54.748 34.52 56.96 37.104C59.332 39.864 59.992 42.932 60 43.984L59.968 43.992C59.9494 43.9951 59.9307 43.9978 59.912 44H28.088ZM44 20C46.1217 20 48.1566 19.1571 49.6569 17.6569C51.1571 16.1566 52 14.1217 52 12C52 9.87827 51.1571 7.84344 49.6569 6.34315C48.1566 4.84285 46.1217 4 44 4C41.8783 4 39.8434 4.84285 38.3431 6.34315C36.8429 7.84344 36 9.87827 36 12C36 14.1217 36.8429 16.1566 38.3431 17.6569C39.8434 19.1571 41.8783 20 44 20ZM56 12C56 13.5759 55.6896 15.1363 55.0866 16.5922C54.4835 18.0481 53.5996 19.371 52.4853 20.4853C51.371 21.5996 50.0481 22.4835 48.5922 23.0866C47.1363 23.6896 45.5759 24 44 24C42.4241 24 40.8637 23.6896 39.4078 23.0866C37.9519 22.4835 36.629 21.5996 35.5147 20.4853C34.4004 19.371 33.5165 18.0481 32.9134 16.5922C32.3104 15.1363 32 13.5759 32 12C32 8.8174 33.2643 5.76516 35.5147 3.51472C37.7652 1.26428 40.8174 0 44 0C47.1826 0 50.2348 1.26428 52.4853 3.51472C54.7357 5.76516 56 8.8174 56 12ZM27.744 29.12C26.1439 28.6162 24.4945 28.2849 22.824 28.132C21.8853 28.0427 20.9429 27.9987 20 28C4 28 0 40 0 44C0 46.668 1.332 48 4 48H20.864C20.271 46.7513 19.9753 45.3822 20 44C20 39.96 21.508 35.832 24.36 32.384C25.332 31.208 26.464 30.108 27.744 29.12ZM19.68 32C17.3126 35.5571 16.0338 39.7273 16 44H4C4 42.96 4.656 39.88 7.04 37.104C9.22 34.56 13.008 32.08 19.68 32.004V32ZM6 14C6 10.8174 7.26428 7.76516 9.51472 5.51472C11.7652 3.26428 14.8174 2 18 2C21.1826 2 24.2348 3.26428 26.4853 5.51472C28.7357 7.76516 30 10.8174 30 14C30 17.1826 28.7357 20.2348 26.4853 22.4853C24.2348 24.7357 21.1826 26 18 26C14.8174 26 11.7652 24.7357 9.51472 22.4853C7.26428 20.2348 6 17.1826 6 14ZM18 6C15.8783 6 13.8434 6.84285 12.3431 8.34315C10.8429 9.84344 10 11.8783 10 14C10 16.1217 10.8429 18.1566 12.3431 19.6569C13.8434 21.1571 15.8783 22 18 22C20.1217 22 22.1566 21.1571 23.6569 19.6569C25.1571 18.1566 26 16.1217 26 14C26 11.8783 25.1571 9.84344 23.6569 8.34315C22.1566 6.84285 20.1217 6 18 6Z" fill="#181515"/>
</svg>
